<?xml version="1.0" standalone="no"?>
<!DOCTYPE svg PUBLIC "-//W3C//DTD SVG 20010904//EN"
 "http://www.w3.org/TR/2001/REC-SVG-20010904/DTD/svg10.dtd">
<svg version="1.0" xmlns="http://www.w3.org/2000/svg"
 width="500.000000pt" height="500.000000pt" viewBox="0 0 500.000000 500.000000"
 preserveAspectRatio="xMidYMid meet">

<g transform="translate(0.000000,500.000000) scale(0.100000,-0.100000)"
fill="#000000" stroke="none">
<path d="M2420 3065 l0 -878 23 19 c12 10 73 68 135 128 l112 111 0 582 0 583
23 0 c12 0 65 -11 117 -25 139 -38 318 -127 398 -198 l22 -21 -20 -21 c-19
-21 -20 -33 -18 -209 l3 -186 225 217 c124 120 226 223 228 230 6 21 -207 224
-303 289 -160 109 -314 177 -495 221 -83 20 -141 26 -277 30 l-173 6 0 -878z"/>
<path d="M2070 3866 c-297 -104 -568 -317 -736 -576 -100 -155 -177 -351 -210
-530 -24 -129 -24 -381 0 -510 109 -598 576 -1060 1181 -1167 122 -21 351 -21
480 2 294 50 557 187 770 400 126 125 214 247 286 398 81 170 107 118 -241
477 l-303 311 -76 -73 c-206 -198 -291 -283 -291 -292 0 -5 39 -49 87 -97 l86
-88 95 90 c77 74 97 88 106 77 7 -7 66 -68 131 -135 l118 -122 -14 -33 c-43
-106 -206 -299 -329 -391 -301 -224 -709 -283 -1056 -152 -402 151 -678 511
-725 944 -21 190 15 395 101 579 112 237 308 433 547 543 l83 39 0 165 c0 126
-3 165 -12 164 -7 0 -42 -11 -78 -23z"/>
<path d="M2023 2901 l-123 -117 0 -278 0 -278 277 -287 c153 -157 296 -305
318 -328 l40 -43 187 183 188 182 -90 95 -89 95 -89 -88 c-49 -48 -93 -87 -98
-87 -5 0 -93 87 -197 194 l-187 194 0 341 c0 188 -3 341 -7 340 -5 0 -63 -53
-130 -118z"/>
</g>
</svg>
